<svg width="1223" height="458" xmlns="http://www.w3.org/2000/svg" xmlns:xlink="http://www.w3.org/1999/xlink" overflow="hidden"><g transform="translate(10 -155)"><path d="M0 0 843 0 674.4 124 168.6 124Z" fill="#F7F5EF" fill-rule="evenodd" transform="matrix(-1 0 0 1 1212 489)"/><path d="M0 66.6 1221 0 1221 333 0 333Z" fill="#F7F5EF" fill-rule="evenodd" transform="matrix(-1 0 0 1 1212 156)"/><path d="M0 160 514.423 0 893 0 378.577 160Z" fill="#F7F5EF" fill-rule="evenodd" transform="matrix(-1 0 0 1 884 453)"/><path d="M0 0 793 0 634.4 55 158.6 55Z" fill="#F7F5EF" fill-rule="evenodd" transform="matrix(-1 0 0 1 784 489)"/></g></svg>