<svg width="642" height="83" xmlns="http://www.w3.org/2000/svg" xmlns:xlink="http://www.w3.org/1999/xlink" overflow="hidden"><defs><linearGradient x1="577.123" y1="417.073" x2="577.123" y2="346.673" gradientUnits="userSpaceOnUse" spreadMethod="reflect" id="fill0"><stop offset="0" stop-color="#956F3A"/><stop offset="0.5" stop-color="#D7A157"/><stop offset="1" stop-color="#FFC069"/></linearGradient></defs><g transform="translate(-319 -340)"><path d="M540.395 369.763 533.971 388.344 546.935 388.344 540.424 369.763ZM774.51 368.898 774.51 381.459 779.35 381.459C780.656 381.459 781.784 381.301 782.735 380.984 783.686 380.667 784.478 380.225 785.112 379.658 785.745 379.092 786.211 378.425 786.509 377.656 786.807 376.888 786.955 376.053 786.955 375.15 786.955 373.69 786.629 372.456 785.976 371.448 785.323 370.44 784.228 369.715 782.692 369.273 782.212 369.139 781.669 369.043 781.064 368.985 780.459 368.927 779.667 368.898 778.687 368.898ZM398.51 368.898 398.51 381.459 403.35 381.459C404.656 381.459 405.784 381.301 406.735 380.984 407.686 380.667 408.478 380.225 409.112 379.658 409.746 379.092 410.211 378.425 410.509 377.656 410.807 376.888 410.955 376.053 410.955 375.15 410.955 373.69 410.629 372.456 409.976 371.448 409.323 370.44 408.228 369.715 406.692 369.273 406.212 369.139 405.669 369.043 405.064 368.985 404.459 368.927 403.667 368.898 402.687 368.898ZM339.51 368.898 339.51 383.85 343.975 383.85C345.474 383.85 346.717 383.658 347.706 383.274 348.695 382.89 349.526 382.357 350.198 381.675 350.87 380.993 351.379 380.177 351.725 379.226 352.071 378.276 352.244 377.243 352.244 376.129 352.244 374.612 351.96 373.345 351.394 372.327 350.827 371.309 350.126 370.55 349.291 370.051 348.455 369.551 347.591 369.235 346.698 369.1 345.805 368.966 344.936 368.898 344.091 368.898ZM745.204 368.495C743.056 368.495 741.253 368.898 739.795 369.705 738.337 370.512 737.153 371.587 736.242 372.932 735.331 374.276 734.678 375.846 734.285 377.642 733.892 379.438 733.695 381.325 733.695 383.303 733.695 385.492 733.877 387.509 734.242 389.353 734.606 391.196 735.22 392.786 736.083 394.12 736.947 395.455 738.102 396.492 739.551 397.232 740.999 397.971 742.816 398.341 745.003 398.341 747.17 398.341 748.992 397.938 750.469 397.131 751.947 396.324 753.136 395.234 754.037 393.861 754.939 392.488 755.581 390.899 755.965 389.093 756.349 387.288 756.54 385.377 756.54 383.36 756.54 381.248 756.353 379.284 755.979 377.469 755.605 375.654 754.982 374.079 754.109 372.744 753.236 371.41 752.071 370.368 750.613 369.619 749.156 368.87 747.353 368.495 745.204 368.495ZM466.204 368.495C464.056 368.495 462.253 368.898 460.795 369.705 459.337 370.512 458.153 371.587 457.242 372.932 456.331 374.276 455.678 375.846 455.285 377.642 454.892 379.438 454.695 381.325 454.695 383.303 454.695 385.492 454.877 387.509 455.242 389.353 455.606 391.196 456.22 392.786 457.083 394.12 457.947 395.455 459.102 396.492 460.551 397.232 461.999 397.971 463.816 398.341 466.003 398.341 468.17 398.341 469.992 397.938 471.469 397.131 472.947 396.324 474.136 395.234 475.037 393.861 475.939 392.488 476.581 390.899 476.965 389.093 477.349 387.288 477.54 385.377 477.54 383.36 477.54 381.248 477.353 379.284 476.979 377.469 476.605 375.654 475.982 374.079 475.109 372.744 474.236 371.41 473.071 370.368 471.613 369.619 470.156 368.87 468.353 368.495 466.204 368.495ZM802.399 364.808 820.087 364.808C820.241 364.808 820.38 364.846 820.505 364.923 820.63 365 820.731 365.125 820.807 365.297 820.884 365.47 820.947 365.686 820.995 365.946 821.043 366.205 821.067 366.527 821.067 366.911 821.067 367.256 821.043 367.559 820.995 367.818 820.947 368.077 820.884 368.289 820.807 368.452 820.731 368.615 820.63 368.735 820.505 368.812 820.38 368.889 820.241 368.927 820.087 368.927L805.51 368.927 805.51 380.624 818.013 380.624C818.167 380.624 818.306 380.667 818.431 380.753 818.556 380.84 818.661 380.96 818.748 381.113 818.834 381.267 818.896 381.478 818.935 381.747 818.973 382.016 818.993 382.333 818.993 382.698 818.993 383.043 818.973 383.341 818.935 383.591 818.896 383.841 818.834 384.042 818.748 384.196 818.661 384.349 818.556 384.46 818.431 384.527 818.306 384.594 818.167 384.628 818.013 384.628L805.51 384.628 805.51 397.966 820.289 397.966C820.443 397.966 820.582 398.005 820.707 398.082 820.832 398.158 820.942 398.278 821.038 398.442 821.134 398.605 821.201 398.816 821.24 399.075 821.278 399.335 821.297 399.656 821.297 400.041 821.297 400.386 821.278 400.689 821.24 400.948 821.201 401.207 821.134 401.423 821.038 401.596 820.942 401.769 820.832 401.894 820.707 401.971 820.582 402.048 820.443 402.086 820.289 402.086L802.399 402.086C801.957 402.086 801.539 401.937 801.146 401.639 800.752 401.342 800.555 400.818 800.555 400.069L800.555 366.824C800.555 366.075 800.752 365.552 801.146 365.254 801.539 364.957 801.957 364.808 802.399 364.808ZM771.399 364.808 779.321 364.808C780.262 364.808 781.045 364.832 781.669 364.88 782.293 364.928 782.855 364.98 783.354 365.038 784.795 365.288 786.067 365.682 787.172 366.219 788.276 366.757 789.203 367.439 789.952 368.265 790.701 369.091 791.262 370.036 791.637 371.102 792.011 372.168 792.199 373.345 792.199 374.631 792.199 375.88 792.031 376.999 791.694 377.988 791.358 378.977 790.873 379.851 790.24 380.609 789.606 381.368 788.847 382.026 787.964 382.583 787.08 383.14 786.091 383.61 784.996 383.994 785.611 384.263 786.168 384.604 786.667 385.017 787.167 385.43 787.632 385.924 788.065 386.501 788.497 387.077 788.905 387.739 789.289 388.488 789.673 389.237 790.057 390.082 790.441 391.023L793.783 399.234C794.052 399.925 794.225 400.41 794.302 400.689 794.378 400.967 794.417 401.183 794.417 401.337 794.417 401.491 794.388 401.625 794.33 401.74 794.273 401.855 794.148 401.952 793.956 402.028 793.764 402.105 793.495 402.163 793.149 402.201 792.804 402.24 792.343 402.259 791.766 402.259 791.267 402.259 790.859 402.24 790.542 402.201 790.225 402.163 789.971 402.1 789.779 402.014 789.587 401.928 789.438 401.807 789.332 401.654 789.227 401.5 789.135 401.308 789.058 401.078L785.63 392.291C785.227 391.292 784.809 390.375 784.377 389.54 783.945 388.704 783.431 387.984 782.836 387.379 782.24 386.774 781.539 386.304 780.733 385.968 779.926 385.631 778.956 385.463 777.823 385.463L774.51 385.463 774.51 401.337C774.51 401.491 774.467 401.625 774.38 401.74 774.294 401.855 774.16 401.947 773.977 402.014 773.795 402.081 773.545 402.139 773.228 402.187 772.911 402.235 772.513 402.259 772.033 402.259 771.552 402.259 771.154 402.235 770.837 402.187 770.52 402.139 770.266 402.081 770.074 402.014 769.882 401.947 769.747 401.855 769.67 401.74 769.594 401.625 769.555 401.491 769.555 401.337L769.555 366.824C769.555 366.075 769.752 365.552 770.146 365.254 770.539 364.957 770.957 364.808 771.399 364.808ZM598.012 364.808 623.939 364.808C624.093 364.808 624.232 364.846 624.357 364.923 624.482 365 624.588 365.125 624.674 365.297 624.76 365.47 624.823 365.696 624.861 365.974 624.9 366.253 624.919 366.575 624.919 366.939 624.919 367.304 624.9 367.621 624.861 367.89 624.823 368.159 624.76 368.375 624.674 368.538 624.588 368.702 624.482 368.822 624.357 368.898 624.232 368.975 624.093 369.014 623.939 369.014L613.453 369.014 613.453 401.337C613.453 401.491 613.415 401.625 613.338 401.74 613.261 401.855 613.126 401.947 612.934 402.014 612.742 402.081 612.488 402.139 612.171 402.187 611.854 402.235 611.456 402.259 610.975 402.259 610.515 402.259 610.121 402.235 609.794 402.187 609.468 402.139 609.209 402.081 609.016 402.014 608.824 401.947 608.69 401.855 608.613 401.74 608.536 401.625 608.498 401.491 608.498 401.337L608.498 369.014 598.012 369.014C597.858 369.014 597.719 368.975 597.594 368.898 597.469 368.822 597.368 368.702 597.291 368.538 597.215 368.375 597.152 368.159 597.104 367.89 597.056 367.621 597.032 367.304 597.032 366.939 597.032 366.575 597.056 366.253 597.104 365.974 597.152 365.696 597.215 365.47 597.291 365.297 597.368 365.125 597.469 365 597.594 364.923 597.719 364.846 597.858 364.808 598.012 364.808ZM395.399 364.808 403.321 364.808C404.262 364.808 405.045 364.832 405.669 364.88 406.293 364.928 406.855 364.98 407.354 365.038 408.795 365.288 410.067 365.682 411.172 366.219 412.276 366.757 413.203 367.439 413.952 368.265 414.701 369.091 415.262 370.036 415.637 371.102 416.011 372.168 416.199 373.345 416.199 374.631 416.199 375.88 416.031 376.999 415.694 377.988 415.358 378.977 414.873 379.851 414.24 380.609 413.606 381.368 412.847 382.026 411.964 382.583 411.08 383.14 410.091 383.61 408.996 383.994 409.611 384.263 410.168 384.604 410.667 385.017 411.167 385.43 411.632 385.924 412.065 386.501 412.497 387.077 412.905 387.739 413.289 388.488 413.673 389.237 414.057 390.082 414.441 391.023L417.783 399.234C418.052 399.925 418.225 400.41 418.302 400.689 418.378 400.967 418.417 401.183 418.417 401.337 418.417 401.491 418.388 401.625 418.33 401.74 418.273 401.855 418.148 401.952 417.956 402.028 417.764 402.105 417.495 402.163 417.149 402.201 416.804 402.24 416.343 402.259 415.767 402.259 415.267 402.259 414.859 402.24 414.542 402.201 414.225 402.163 413.971 402.1 413.779 402.014 413.587 401.928 413.438 401.807 413.332 401.654 413.227 401.5 413.135 401.308 413.059 401.078L409.63 392.291C409.227 391.292 408.809 390.375 408.377 389.54 407.945 388.704 407.431 387.984 406.836 387.379 406.24 386.774 405.539 386.304 404.733 385.968 403.926 385.631 402.956 385.463 401.823 385.463L398.51 385.463 398.51 401.337C398.51 401.491 398.467 401.625 398.381 401.74 398.294 401.855 398.16 401.947 397.977 402.014 397.795 402.081 397.545 402.139 397.228 402.187 396.911 402.235 396.513 402.259 396.033 402.259 395.552 402.259 395.154 402.235 394.837 402.187 394.52 402.139 394.266 402.081 394.074 402.014 393.882 401.947 393.747 401.855 393.67 401.74 393.594 401.625 393.555 401.491 393.555 401.337L393.555 366.824C393.555 366.075 393.752 365.552 394.146 365.254 394.539 364.957 394.957 364.808 395.399 364.808ZM366.399 364.808 384.087 364.808C384.241 364.808 384.38 364.846 384.505 364.923 384.63 365 384.731 365.125 384.808 365.297 384.884 365.47 384.947 365.686 384.995 365.946 385.043 366.205 385.067 366.527 385.067 366.911 385.067 367.256 385.043 367.559 384.995 367.818 384.947 368.077 384.884 368.289 384.808 368.452 384.731 368.615 384.63 368.735 384.505 368.812 384.38 368.889 384.241 368.927 384.087 368.927L369.51 368.927 369.51 380.624 382.013 380.624C382.167 380.624 382.306 380.667 382.431 380.753 382.556 380.84 382.661 380.96 382.748 381.113 382.834 381.267 382.897 381.478 382.935 381.747 382.973 382.016 382.993 382.333 382.993 382.698 382.993 383.043 382.973 383.341 382.935 383.591 382.897 383.841 382.834 384.042 382.748 384.196 382.661 384.349 382.556 384.46 382.431 384.527 382.306 384.594 382.167 384.628 382.013 384.628L369.51 384.628 369.51 397.966 384.289 397.966C384.443 397.966 384.582 398.005 384.707 398.082 384.832 398.158 384.942 398.278 385.038 398.442 385.134 398.605 385.201 398.816 385.24 399.075 385.278 399.335 385.297 399.656 385.297 400.041 385.297 400.386 385.278 400.689 385.24 400.948 385.201 401.207 385.134 401.423 385.038 401.596 384.942 401.769 384.832 401.894 384.707 401.971 384.582 402.048 384.443 402.086 384.289 402.086L366.399 402.086C365.957 402.086 365.539 401.937 365.146 401.639 364.752 401.342 364.555 400.818 364.555 400.069L364.555 366.824C364.555 366.075 364.752 365.552 365.146 365.254 365.539 364.957 365.957 364.808 366.399 364.808ZM336.514 364.808 344.494 364.808C345.301 364.808 346.074 364.841 346.813 364.908 347.553 364.976 348.426 365.12 349.435 365.341 350.443 365.561 351.471 365.974 352.517 366.579 353.564 367.184 354.452 367.929 355.182 368.812 355.912 369.696 356.474 370.718 356.867 371.88 357.261 373.042 357.458 374.324 357.458 375.726 357.458 377.589 357.151 379.27 356.536 380.768 355.921 382.266 355.043 383.543 353.9 384.599 352.757 385.655 351.355 386.472 349.694 387.048 348.033 387.624 346.05 387.912 343.745 387.912L339.51 387.912 339.51 401.337C339.51 401.491 339.467 401.625 339.381 401.74 339.294 401.855 339.16 401.947 338.977 402.014 338.795 402.081 338.545 402.139 338.228 402.187 337.911 402.235 337.513 402.259 337.033 402.259 336.552 402.259 336.154 402.235 335.837 402.187 335.52 402.139 335.266 402.081 335.074 402.014 334.882 401.947 334.747 401.855 334.67 401.74 334.594 401.625 334.555 401.491 334.555 401.337L334.555 366.939C334.555 366.171 334.757 365.624 335.16 365.297 335.563 364.971 336.015 364.808 336.514 364.808ZM516.298 364.721C516.744 364.721 517.129 364.74 517.453 364.779 517.777 364.817 518.031 364.88 518.213 364.966 518.396 365.053 518.527 365.153 518.608 365.269 518.689 365.384 518.73 365.509 518.73 365.643L518.73 400.041C518.73 400.425 518.665 400.751 518.536 401.02 518.407 401.289 518.238 401.51 518.03 401.683 517.821 401.855 517.588 401.98 517.33 402.057 517.072 402.134 516.813 402.172 516.555 402.172L514.916 402.172C514.4 402.172 513.948 402.12 513.561 402.014 513.173 401.908 512.806 401.716 512.458 401.438 512.111 401.159 511.763 400.78 511.415 400.3 511.068 399.82 510.699 399.205 510.309 398.456L498.937 377.253C498.342 376.158 497.743 375.011 497.139 373.81 496.535 372.61 495.973 371.443 495.453 370.31L495.395 370.31C495.433 371.693 495.462 373.105 495.481 374.545 495.501 375.985 495.51 377.416 495.51 378.837L495.51 401.337C495.51 401.471 495.47 401.601 495.389 401.726 495.308 401.851 495.171 401.947 494.978 402.014 494.786 402.081 494.532 402.139 494.218 402.187 493.904 402.235 493.504 402.259 493.017 402.259 492.531 402.259 492.131 402.235 491.817 402.187 491.503 402.139 491.254 402.081 491.072 402.014 490.889 401.947 490.758 401.851 490.677 401.726 490.596 401.601 490.555 401.471 490.555 401.337L490.555 366.939C490.555 366.171 490.773 365.624 491.209 365.297 491.646 364.971 492.121 364.808 492.637 364.808L495.075 364.808C495.65 364.808 496.13 364.856 496.517 364.952 496.904 365.048 497.25 365.206 497.558 365.427 497.865 365.648 498.162 365.955 498.45 366.349 498.737 366.743 499.039 367.237 499.354 367.833L508.097 384.196C508.635 385.195 509.155 386.169 509.656 387.12 510.157 388.071 510.64 389.007 511.104 389.929 511.568 390.851 512.027 391.758 512.482 392.651 512.937 393.544 513.387 394.442 513.832 395.345L513.861 395.345C513.823 393.828 513.799 392.248 513.789 390.606 513.78 388.964 513.775 387.384 513.775 385.867L513.775 365.643C513.775 365.509 513.815 365.384 513.896 365.269 513.977 365.153 514.114 365.053 514.307 364.966 514.499 364.88 514.753 364.817 515.067 364.779 515.381 364.74 515.791 364.721 516.298 364.721ZM628.971 364.635C629.547 364.635 630.013 364.654 630.368 364.692 630.723 364.731 631.006 364.784 631.218 364.851 631.429 364.918 631.587 365.014 631.693 365.139 631.799 365.264 631.9 365.422 631.995 365.614L637.152 376.331C637.631 377.349 638.109 378.415 638.586 379.529 639.063 380.643 639.55 381.766 640.047 382.899L640.104 382.899C640.543 381.805 640.997 380.715 641.465 379.63 641.932 378.545 642.406 377.474 642.885 376.418L648.071 365.643C648.128 365.451 648.21 365.288 648.316 365.153 648.421 365.019 648.565 364.918 648.748 364.851 648.93 364.784 649.185 364.731 649.511 364.692 649.838 364.654 650.251 364.635 650.75 364.635 651.441 364.635 651.984 364.659 652.378 364.707 652.771 364.755 653.045 364.846 653.199 364.98 653.352 365.115 653.405 365.307 653.357 365.557 653.309 365.806 653.179 366.142 652.968 366.565L642.424 387.595 642.424 401.337C642.424 401.491 642.386 401.625 642.31 401.74 642.233 401.855 642.1 401.947 641.909 402.014 641.718 402.081 641.46 402.139 641.135 402.187 640.811 402.235 640.419 402.259 639.961 402.259 639.484 402.259 639.087 402.235 638.772 402.187 638.457 402.139 638.199 402.081 637.999 402.014 637.798 401.947 637.66 401.855 637.584 401.74 637.507 401.625 637.469 401.491 637.469 401.337L637.469 387.595 626.925 366.565C626.714 366.123 626.584 365.778 626.536 365.528 626.488 365.278 626.536 365.086 626.68 364.952 626.824 364.817 627.084 364.731 627.458 364.692 627.833 364.654 628.337 364.635 628.971 364.635ZM589.033 364.635C589.513 364.635 589.911 364.659 590.228 364.707 590.545 364.755 590.8 364.812 590.992 364.88 591.184 364.947 591.318 365.038 591.395 365.153 591.472 365.269 591.51 365.403 591.51 365.557L591.51 401.337C591.51 401.491 591.472 401.625 591.395 401.74 591.318 401.855 591.184 401.947 590.992 402.014 590.8 402.081 590.545 402.139 590.228 402.187 589.911 402.235 589.513 402.259 589.033 402.259 588.572 402.259 588.178 402.235 587.851 402.187 587.525 402.139 587.266 402.081 587.074 402.014 586.882 401.947 586.747 401.855 586.67 401.74 586.593 401.625 586.555 401.491 586.555 401.337L586.555 365.557C586.555 365.403 586.598 365.269 586.685 365.153 586.771 365.038 586.915 364.947 587.117 364.88 587.318 364.812 587.578 364.755 587.895 364.707 588.212 364.659 588.591 364.635 589.033 364.635ZM565.033 364.635C565.513 364.635 565.911 364.659 566.228 364.707 566.545 364.755 566.8 364.812 566.992 364.88 567.184 364.947 567.318 365.038 567.395 365.153 567.472 365.269 567.51 365.403 567.51 365.557L567.51 397.793 580.877 397.793C581.05 397.793 581.199 397.837 581.324 397.923 581.449 398.01 581.554 398.134 581.641 398.298 581.727 398.461 581.79 398.677 581.828 398.946 581.866 399.215 581.886 399.541 581.886 399.925 581.886 400.309 581.866 400.631 581.828 400.89 581.79 401.15 581.727 401.371 581.641 401.553 581.554 401.735 581.449 401.87 581.324 401.956 581.199 402.043 581.05 402.086 580.877 402.086L564.399 402.086C563.957 402.086 563.539 401.937 563.146 401.639 562.752 401.342 562.555 400.818 562.555 400.069L562.555 365.557C562.555 365.403 562.594 365.269 562.67 365.153 562.747 365.038 562.882 364.947 563.074 364.88 563.266 364.812 563.525 364.755 563.851 364.707 564.178 364.659 564.572 364.635 565.033 364.635ZM540.568 364.635C541.183 364.635 541.692 364.649 542.095 364.678 542.498 364.707 542.825 364.76 543.075 364.836 543.324 364.913 543.516 365.024 543.651 365.168 543.785 365.312 543.891 365.489 543.968 365.701L556.471 400.329C556.624 400.751 556.706 401.092 556.715 401.351 556.725 401.611 556.653 401.807 556.499 401.942 556.346 402.076 556.091 402.163 555.736 402.201 555.381 402.24 554.905 402.259 554.31 402.259 553.715 402.259 553.239 402.244 552.884 402.216 552.529 402.187 552.26 402.139 552.077 402.072 551.895 402.004 551.76 401.913 551.674 401.798 551.588 401.683 551.506 401.539 551.429 401.366L548.231 392.291 532.732 392.291 529.679 401.251C529.621 401.423 529.544 401.572 529.448 401.697 529.352 401.822 529.213 401.928 529.03 402.014 528.848 402.1 528.589 402.163 528.253 402.201 527.917 402.24 527.48 402.259 526.942 402.259 526.385 402.259 525.929 402.235 525.573 402.187 525.218 402.139 524.968 402.048 524.824 401.913 524.68 401.779 524.613 401.582 524.623 401.323 524.632 401.063 524.714 400.722 524.868 400.3L537.37 365.672C537.447 365.461 537.548 365.288 537.673 365.153 537.798 365.019 537.98 364.913 538.22 364.836 538.46 364.76 538.768 364.707 539.142 364.678 539.517 364.649 539.992 364.635 540.568 364.635ZM713.786 364.347C714.862 364.347 715.909 364.448 716.927 364.649 717.945 364.851 718.886 365.105 719.75 365.413 720.614 365.72 721.382 366.075 722.055 366.479 722.727 366.882 723.193 367.213 723.452 367.472 723.711 367.732 723.879 367.929 723.956 368.063 724.033 368.197 724.095 368.356 724.143 368.538 724.191 368.721 724.23 368.937 724.258 369.187 724.287 369.436 724.302 369.734 724.302 370.08 724.302 370.464 724.282 370.79 724.244 371.059 724.205 371.328 724.147 371.554 724.07 371.736 723.993 371.919 723.901 372.053 723.795 372.139 723.689 372.226 723.558 372.269 723.404 372.269 723.134 372.269 722.757 372.082 722.274 371.707 721.791 371.333 721.169 370.92 720.406 370.469 719.643 370.017 718.717 369.604 717.626 369.23 716.535 368.855 715.227 368.668 713.701 368.668 712.041 368.668 710.53 368.999 709.169 369.662 707.807 370.324 706.644 371.299 705.679 372.586 704.713 373.873 703.965 375.443 703.434 377.296 702.903 379.15 702.638 381.267 702.638 383.648 702.638 386.011 702.893 388.099 703.405 389.914 703.917 391.729 704.65 393.247 705.606 394.466 706.562 395.686 707.735 396.608 709.125 397.232 710.515 397.856 712.089 398.168 713.846 398.168 715.333 398.168 716.631 397.986 717.741 397.621 718.851 397.256 719.797 396.848 720.579 396.396 721.361 395.945 722.003 395.537 722.505 395.172 723.007 394.807 723.403 394.625 723.693 394.625 723.828 394.625 723.944 394.653 724.04 394.711 724.137 394.769 724.214 394.879 724.272 395.042 724.33 395.206 724.373 395.431 724.402 395.719 724.431 396.007 724.446 396.372 724.446 396.814 724.446 397.121 724.436 397.39 724.417 397.621 724.398 397.851 724.364 398.053 724.316 398.226 724.268 398.398 724.206 398.552 724.129 398.687 724.052 398.821 723.917 398.984 723.725 399.176 723.533 399.368 723.13 399.661 722.516 400.055 721.901 400.449 721.137 400.833 720.225 401.207 719.313 401.582 718.266 401.899 717.085 402.158 715.904 402.417 714.612 402.547 713.21 402.547 710.79 402.547 708.606 402.144 706.656 401.337 704.707 400.53 703.046 399.34 701.672 397.765 700.299 396.19 699.243 394.245 698.504 391.931 697.764 389.617 697.394 386.952 697.394 383.937 697.394 380.844 697.793 378.088 698.59 375.668 699.387 373.249 700.506 371.198 701.946 369.518 703.387 367.837 705.11 366.555 707.117 365.672 709.124 364.788 711.347 364.347 713.786 364.347ZM745.507 364.26C748.253 364.26 750.644 364.673 752.68 365.499 754.716 366.325 756.411 367.53 757.765 369.115 759.119 370.699 760.127 372.658 760.79 374.991 761.452 377.325 761.784 379.999 761.784 383.015 761.784 386.03 761.428 388.748 760.718 391.168 760.007 393.587 758.946 395.647 757.534 397.347 756.123 399.047 754.351 400.353 752.219 401.265 750.087 402.177 747.6 402.633 744.758 402.633 741.954 402.633 739.529 402.216 737.484 401.38 735.438 400.545 733.748 399.33 732.413 397.736 731.078 396.142 730.085 394.164 729.432 391.801 728.779 389.439 728.452 386.721 728.452 383.648 728.452 380.71 728.807 378.04 729.518 375.64 730.229 373.239 731.294 371.198 732.716 369.518 734.137 367.837 735.913 366.541 738.045 365.629 740.177 364.716 742.664 364.26 745.507 364.26ZM681.889 364.26C682.715 364.26 683.546 364.332 684.381 364.476 685.216 364.62 686.004 364.812 686.743 365.053 687.483 365.293 688.141 365.561 688.717 365.859 689.293 366.157 689.672 366.397 689.855 366.579 690.037 366.762 690.157 366.906 690.215 367.012 690.272 367.117 690.32 367.252 690.359 367.415 690.397 367.578 690.426 367.775 690.445 368.005 690.464 368.236 690.474 368.534 690.474 368.898 690.474 369.244 690.46 369.551 690.431 369.82 690.402 370.089 690.359 370.315 690.301 370.497 690.244 370.68 690.162 370.814 690.056 370.901 689.951 370.987 689.831 371.03 689.696 371.03 689.485 371.03 689.154 370.896 688.702 370.627 688.251 370.358 687.699 370.056 687.046 369.72 686.393 369.383 685.62 369.076 684.727 368.798 683.834 368.519 682.83 368.38 681.716 368.38 680.679 368.38 679.776 368.519 679.008 368.798 678.24 369.076 677.606 369.446 677.107 369.907 676.607 370.368 676.233 370.915 675.983 371.549 675.734 372.183 675.609 372.855 675.609 373.565 675.609 374.603 675.849 375.496 676.329 376.245 676.809 376.994 677.448 377.656 678.245 378.232 679.042 378.809 679.949 379.337 680.967 379.817 681.985 380.297 683.022 380.782 684.078 381.272 685.135 381.762 686.172 382.299 687.19 382.885 688.208 383.471 689.115 384.162 689.912 384.959 690.709 385.756 691.353 386.697 691.842 387.783 692.332 388.868 692.577 390.15 692.577 391.628 692.577 393.376 692.255 394.932 691.612 396.295 690.969 397.659 690.075 398.816 688.933 399.767 687.79 400.718 686.446 401.433 684.9 401.913 683.354 402.393 681.687 402.633 679.901 402.633 678.653 402.633 677.496 402.528 676.43 402.316 675.364 402.105 674.413 401.846 673.578 401.539 672.742 401.231 672.041 400.914 671.475 400.588 670.908 400.261 670.514 399.983 670.294 399.752 670.073 399.522 669.909 399.229 669.804 398.874 669.698 398.519 669.645 398.043 669.645 397.448 669.645 397.025 669.665 396.675 669.703 396.396 669.741 396.118 669.799 395.892 669.876 395.719 669.953 395.546 670.049 395.426 670.164 395.359 670.279 395.292 670.414 395.258 670.567 395.258 670.836 395.258 671.215 395.422 671.705 395.748 672.195 396.075 672.824 396.43 673.592 396.814 674.36 397.198 675.287 397.558 676.372 397.894 677.457 398.23 678.71 398.398 680.132 398.398 681.207 398.398 682.192 398.254 683.085 397.966 683.978 397.678 684.746 397.27 685.389 396.742 686.033 396.214 686.527 395.566 686.873 394.797 687.219 394.029 687.391 393.155 687.391 392.176 687.391 391.12 687.151 390.217 686.671 389.468 686.191 388.719 685.557 388.061 684.77 387.494 683.983 386.928 683.085 386.409 682.076 385.939 681.068 385.468 680.036 384.988 678.979 384.498 677.923 384.009 676.896 383.466 675.897 382.871 674.898 382.275 674.005 381.574 673.218 380.768 672.43 379.961 671.792 379.015 671.302 377.93 670.812 376.845 670.567 375.544 670.567 374.026 670.567 372.471 670.851 371.083 671.417 369.864 671.984 368.644 672.771 367.621 673.779 366.795 674.788 365.97 675.988 365.341 677.38 364.908 678.773 364.476 680.276 364.26 681.889 364.26ZM466.507 364.26C469.253 364.26 471.644 364.673 473.68 365.499 475.716 366.325 477.411 367.53 478.765 369.115 480.119 370.699 481.127 372.658 481.79 374.991 482.452 377.325 482.784 379.999 482.784 383.015 482.784 386.03 482.428 388.748 481.718 391.168 481.007 393.587 479.946 395.647 478.534 397.347 477.123 399.047 475.351 400.353 473.219 401.265 471.087 402.177 468.6 402.633 465.758 402.633 462.954 402.633 460.529 402.216 458.484 401.38 456.438 400.545 454.748 399.33 453.413 397.736 452.078 396.142 451.085 394.164 450.432 391.801 449.779 389.439 449.452 386.721 449.452 383.648 449.452 380.71 449.807 378.04 450.518 375.64 451.229 373.239 452.294 371.198 453.716 369.518 455.137 367.837 456.913 366.541 459.045 365.629 461.177 364.716 463.664 364.26 466.507 364.26ZM433.889 364.26C434.715 364.26 435.546 364.332 436.381 364.476 437.216 364.62 438.004 364.812 438.743 365.053 439.483 365.293 440.141 365.561 440.717 365.859 441.293 366.157 441.672 366.397 441.855 366.579 442.037 366.762 442.157 366.906 442.215 367.012 442.272 367.117 442.32 367.252 442.359 367.415 442.397 367.578 442.426 367.775 442.445 368.005 442.464 368.236 442.474 368.534 442.474 368.898 442.474 369.244 442.46 369.551 442.431 369.82 442.402 370.089 442.359 370.315 442.301 370.497 442.244 370.68 442.162 370.814 442.056 370.901 441.951 370.987 441.831 371.03 441.696 371.03 441.485 371.03 441.154 370.896 440.702 370.627 440.251 370.358 439.699 370.056 439.046 369.72 438.393 369.383 437.62 369.076 436.727 368.798 435.834 368.519 434.83 368.38 433.716 368.38 432.679 368.38 431.776 368.519 431.008 368.798 430.24 369.076 429.606 369.446 429.107 369.907 428.607 370.368 428.233 370.915 427.983 371.549 427.734 372.183 427.609 372.855 427.609 373.565 427.609 374.603 427.849 375.496 428.329 376.245 428.809 376.994 429.448 377.656 430.245 378.232 431.042 378.809 431.949 379.337 432.967 379.817 433.985 380.297 435.022 380.782 436.079 381.272 437.135 381.762 438.172 382.299 439.19 382.885 440.208 383.471 441.115 384.162 441.912 384.959 442.709 385.756 443.353 386.697 443.842 387.783 444.332 388.868 444.577 390.15 444.577 391.628 444.577 393.376 444.255 394.932 443.612 396.295 442.969 397.659 442.076 398.816 440.933 399.767 439.79 400.718 438.446 401.433 436.9 401.913 435.354 402.393 433.687 402.633 431.901 402.633 430.653 402.633 429.496 402.528 428.43 402.316 427.364 402.105 426.413 401.846 425.578 401.539 424.742 401.231 424.041 400.914 423.475 400.588 422.908 400.261 422.514 399.983 422.294 399.752 422.073 399.522 421.909 399.229 421.804 398.874 421.698 398.519 421.645 398.043 421.645 397.448 421.645 397.025 421.665 396.675 421.703 396.396 421.741 396.118 421.799 395.892 421.876 395.719 421.953 395.546 422.049 395.426 422.164 395.359 422.279 395.292 422.414 395.258 422.567 395.258 422.836 395.258 423.215 395.422 423.705 395.748 424.195 396.075 424.824 396.43 425.592 396.814 426.36 397.198 427.287 397.558 428.372 397.894 429.457 398.23 430.711 398.398 432.132 398.398 433.207 398.398 434.192 398.254 435.085 397.966 435.978 397.678 436.746 397.27 437.389 396.742 438.033 396.214 438.527 395.566 438.873 394.797 439.219 394.029 439.392 393.155 439.392 392.176 439.392 391.12 439.151 390.217 438.671 389.468 438.191 388.719 437.557 388.061 436.77 387.494 435.982 386.928 435.085 386.409 434.076 385.939 433.068 385.468 432.036 384.988 430.979 384.498 429.923 384.009 428.896 383.466 427.897 382.871 426.898 382.275 426.005 381.574 425.218 380.768 424.43 379.961 423.792 379.015 423.302 377.93 422.812 376.845 422.567 375.544 422.567 374.026 422.567 372.471 422.851 371.083 423.417 369.864 423.984 368.644 424.771 367.621 425.779 366.795 426.788 365.97 427.988 365.341 429.381 364.908 430.773 364.476 432.276 364.26 433.889 364.26Z" fill="url(#fill0)" fill-rule="evenodd"/><text fill="#000000" fill-opacity="0" font-family="Arial,Arial_MSFontService,sans-serif" font-size="38.373" x="334.555" y="397.837">PERSONALITY SCORE</text></g></svg>